# xmcd
#
# Track frame offsets:
#	150
#	9140
#	22498
#	31831
#	42129
#	53970
#	66498
#	78122
#	90674
#	102006
#	116171
#	127013
#	144003
#	152190
#	161773
#	174135
#	186574
#	198904
#	211699
#	221771
#	230527
#	241332
#	252975
#	262886
#	274735
#
# Disc length: 3786 seconds
# Revision: 0
# Processed by: cddbd v1.5.2PL0 Copyright (c) Steve Scherf et al.
# Submitted via: dBpowerAMP V12.0
#
DISCID=580ec819
DTITLE=Various Artist - A Shot Of Rhythm and Blues
DYEAR=2016
DGENRE=Rhythm and Blues
TTITLE0=Arthur Alexander - A Shot Of Rhythm And Blues
TTITLE1=Eugene Church - Pretty Girls Everywhere
TTITLE2=Clyde McPhatter - Stop
TTITLE3=Eddie Bo - Every Dog Got Its Day
TTITLE4=Ike and Tina Turner - A Fool In Love
TTITLE5=Etta James - Next Door To The Blues
TTITLE6=Little Willie John - Leave My Kitten Alone
TTITLE7=Jimmy McCracklin - The Walk
TTITLE8=Lula Reed - Youlove Keeps A-Working On Me
TTITLE9=Bo Diddley - I Can Tell
TTITLE10=Nappy Brown - Don't Be Angry
TTITLE11=The Miracles - Money
TTITLE12=Charles Sheffield - It's Your Voodoo Working
TTITLE13=Rosco Gordon - Just A Little Bit
TTITLE14=Bobby Parker - Watch Your Step
TTITLE15=Ruth Brown - I Burned Your Letter
TTITLE16=Bobby King - Thanks Mr Postman
TTITLE17=Betty James - I'm A Little Mixed Up
TTITLE18=Howlin' Wolf - I've Been Abused
TTITLE19=Baby Washington - Your Mamma Knows What's Right
TTITLE20=The Del-Vikings - Confession Of Love
TTITLE21=Lavern Baker - Humpty Dumpty Heart
TTITLE22=Benny Spellman - Fortune Teller
TTITLE23=Earl King - Trick Bag
TTITLE24=Buddy Guy - The Treasure Untold
EXTD=
EXTT0=
EXTT1=
EXTT2=
EXTT3=
EXTT4=
EXTT5=
EXTT6=
EXTT7=
EXTT8=
EXTT9=
EXTT10=
EXTT11=
EXTT12=
EXTT13=
EXTT14=
EXTT15=
EXTT16=
EXTT17=
EXTT18=
EXTT19=
EXTT20=
EXTT21=
EXTT22=
EXTT23=
EXTT24=
PLAYORDER=
